<svg width="60" height="60" viewBox="0 0 60 60" fill="none" xmlns="http://www.w3.org/2000/svg">
<path d="M0 12.2681V24.5363L2.73418 24.5648C7.31646 24.6504 11.038 25.5349 15.2405 27.6176C21.038 30.4992 26.1519 35.5777 28.9873 41.3123C29.4937 42.3395 29.9494 43.1668 30 43.1668C30.0506 43.1668 30.5063 42.3395 31.0127 41.3123C33.8481 35.5777 38.962 30.4992 44.7595 27.6176C48.962 25.5349 52.6835 24.6504 57.2658 24.5648L60 24.5363V12.2681V-6.74278e-05L55.8987 0.171117C53.6203 0.256709 50.7595 0.542015 49.4937 0.798791C40.1519 2.68182 33.5696 7.64615 30.8608 14.8929C30.481 15.92 30.076 16.776 30 16.776C29.9241 16.776 29.519 15.92 29.1392 14.8929C26.4304 7.64615 19.8481 2.68182 10.5063 0.798791C9.26582 0.542015 6.37975 0.256709 4.12658 0.171117L0 -6.74278e-05V12.2681Z" fill="#E54D4D"/>
<path d="M0 33.8658C0 36.3194 0.0253165 38.3166 0.0759494 38.3166C0.101266 38.3166 0.987342 38.1454 2.02532 37.9172C6.50633 36.9757 10.6329 37.1183 14.6835 38.3451C17.2911 39.1155 21.8228 41.6832 23.7468 43.4521C24.6329 44.251 25.443 44.8501 25.519 44.7645C25.8228 44.3936 22.6329 39.6575 20.6582 37.5463C15.9747 32.5534 10.1013 29.8715 3.36709 29.5577L0 29.3865V33.8658Z" fill="white"/>
<path d="M52.9114 29.9286C50.5063 30.4992 47.1392 31.726 45.6962 32.5249C43.2658 33.8943 40.3797 36.2909 38.5823 38.3737C36.7848 40.4564 34.2278 44.4507 34.5063 44.7645C34.5823 44.8501 35.3671 44.251 36.2531 43.4521C38.1772 41.6832 42.7088 39.1155 45.3164 38.3451C49.3671 37.1183 53.4937 36.9757 57.9747 37.9172C59.0126 38.1454 59.8987 38.3166 59.9493 38.3166C59.9747 38.3166 60 36.3194 60 33.8943V29.4721L57.2911 29.5006C55.7721 29.5006 53.8228 29.7003 52.9114 29.9286Z" fill="white"/>
<path d="M2.91139 42.7389C2.07595 42.9672 1.08861 43.2525 0.708861 43.4237L0 43.7375V48.6448C0 51.3267 0.101266 53.4379 0.202532 53.2953C0.303797 53.1241 0.835443 52.4108 1.36709 51.669C3.03797 49.2724 5.82278 47.1612 8.86076 45.9629C11.1392 45.0784 12.4051 44.8502 14.9114 44.8502C17.4177 44.8217 17.519 44.7075 15.6962 43.9087C12.2785 42.3966 6.40506 41.883 2.91139 42.7389Z" fill="white"/>
<path d="M47.4684 42.853C45.4431 43.3951 43.3671 44.194 42.9367 44.6219C42.8101 44.7361 43.7975 44.8502 45.0886 44.8502C47.595 44.8502 48.8608 45.0784 51.1393 45.9629C54.2785 47.1897 57.0886 49.358 58.8355 51.8973L59.8734 53.4379L59.9494 48.6733C59.9747 46.0485 59.9241 43.8231 59.8228 43.709C58.7342 42.4821 50.9114 41.9686 47.4684 42.853Z" fill="white"/>
<path d="M11.5945 50.1854C8.05024 51.127 4.911 53.8374 3.41733 57.204C2.93631 58.3167 2.53125 59.4009 2.53125 59.6006C2.53125 59.9429 4.63252 60 15.0882 60H27.6199L27.4426 59.3438C25.5439 52.4394 18.4047 48.3024 11.5945 50.1854Z" fill="#E54D4D"/>
<path d="M41.8989 50.0713C39.9748 50.4708 37.0634 52.2111 35.5698 53.8659C34.3799 55.1783 33.0128 57.632 32.5571 59.3438L32.3799 60H44.9115C55.3672 60 57.4685 59.9429 57.4685 59.6006C57.4685 59.4009 57.0634 58.3167 56.5824 57.204C54.1267 51.669 48.1014 48.7589 41.8989 50.0713Z" fill="#E54D4D"/>
</svg>
